<svg version="1.2" xmlns="http://www.w3.org/2000/svg" viewBox="0 0 780 500" width="780" height="500">
	<title>payment_2-svg</title>
	<style>
		.s0 { fill: #000000 } 
		.s1 { fill: #d9222a } 
		.s2 { fill: #0097d0 } 
		.s3 { fill: #ffffff } 
	</style>
	<path class="s0" d="m0 0h780v500h-780z"/>
	<path class="s1" d="m690 250c0 99.1-80.4 179.5-179.5 179.5-99.1 0-179.5-80.4-179.5-179.5 0-99.1 80.4-179.5 179.5-179.5 99.2 0 179.5 80.4 179.5 179.5z"/>
	<path class="s2" d="m371.9 364q-7.5-9.1-13.7-19h63.6q5.8-9.2 10.4-19h-84.3q-4.4-9.3-7.6-19h99.4c6-17.9 9.3-37.1 9.3-57 0-13-1.4-25.8-4.1-38h-109.8q2.1-9.7 5.2-19h99.4q-3.2-9.7-7.6-19h-84.2q4.6-9.8 10.3-19h63.6q-6.2-10-13.7-19h-36.2c5.6-6.8 11.6-13.1 18.1-19-31.8-28.9-74.1-46.5-120.5-46.5-99.1 0-179.5 80.4-179.5 179.5 0 99.1 80.4 179.5 179.5 179.5 46.4 0 88.7-17.6 120.5-46.5 6.5-5.9 12.6-12.2 18.1-19 0 0-36.2 0-36.2 0z"/>
	<path fill-rule="evenodd" class="s0" d="m666.1 350c0-3.2 2.6-5.8 5.8-5.8 3.2 0 5.8 2.6 5.8 5.8 0 3.2-2.6 5.8-5.8 5.8-3.2 0-5.8-2.6-5.8-5.8zm5.8 4.4c2.4 0 4.4-1.9 4.4-4.3v-0.1c0-2.4-2-4.4-4.4-4.4-2.4 0-4.4 2-4.4 4.4 0 2.5 1.9 4.4 4.4 4.4zm-0.8-1.8h-1.2v-5.1h2.2c0.4 0 0.9 0 1.3 0.3 0.4 0.2 0.6 0.7 0.6 1.2 0 0.6-0.3 1.1-0.9 1.3l1 2.3h-1.4l-0.7-2h-0.9zm0-2.9h0.7c0.2 0 0.5 0 0.7-0.1 0.2-0.1 0.3-0.4 0.3-0.6 0-0.2-0.1-0.4-0.3-0.5-0.2-0.1-0.6-0.1-0.8-0.1h-0.6zm-283.6-51.2c-7.7 2-15.1 3-23 3-25 0-38-11.4-38-33.2 0-25.5 16.6-44.2 39.1-44.2 18.4 0 30.2 10.5 30.2 27 0 5.4-0.8 10.7-2.8 18.3h-44.5c-1.6 10.6 6.2 15.3 19.4 15.3 8 0 15.1-1.5 23.1-4.7zm-12-44.1c0-1.6 2.5-13-10.4-13.3-7.1 0-12.2 4.7-14.3 13.3zm61.2-30.2c5.2 0 14.2 0.6 20.1 1.5l-3.2 17.2c-5.8-0.7-12-1.1-16.4-1.1-7.4 0-11.2 2-11.2 6.1 0 3.4 1.1 4.3 10.7 8.1 11.4 4.5 16 10.5 16 20.7 0 17-11.1 24.9-35.1 24.9-8.1-0.2-17.2-0.7-23.6-2.2l3.2-17.2c7.3 2 13.5 2.9 20.2 2.9 9.1 0.1 13.1-2.1 13.1-6.7 0-3.4-1.4-4.5-10.6-8.3-12-4.8-17.3-11.3-17.3-20.7-0.1-13.8 8.7-25.2 34.1-25.2zm-122.4 76.1h-18.6l0.4-7.8c-5.7 6.2-13.3 9-23.6 9-12.1 0-20.5-8.3-20.5-20.3 0-18.1 14.5-28.6 39.5-28.6 2.5 0 5.8 0.1 9.1 0.5 0.7-2.4 0.9-3.5 0.9-4.8 0-5-3.9-6.8-14.4-6.8-10.4 0-17.3 1.6-23.8 3.3l3.2-16.7c11.2-2.8 18.5-3.9 26.8-3.9 19.3 0 29.5 7.5 29.5 21.8 0.2 3.8-1.2 11.4-1.8 14.7-0.8 4.9-6.1 33-6.7 39.6zm-16.4-33.2c-2.3-0.2-3.4-0.3-5-0.3-12.7 0-19.2 3.8-19.2 11.3 0 4.7 3.2 7.6 8.1 7.6 9.1 0 15.7-7.6 16.1-18.6zm194.1 32c-6.1 1.7-10.9 2.5-16 2.5-11.4 0-17.7-5.9-17.7-16.3-0.3-2.9 2.4-16.1 3.1-19.7 0.6-3.7 10.5-57.5 10.5-57.5h22.2l-3.3 17.8h11.4l-3.1 18.1h-11.5c0 0-6.3 31.6-6.3 34 0 3.8 2.4 5.5 7.7 5.5 2.5 0 4.5-0.3 6-0.7zm134.4-41.9c0 30.8-18.3 44.3-43.5 44.3-25.1 0-35.2-15.2-35.2-33.8 0-7.7 1.5-14.6 4.3-20.6-12-2.8-20.1 3.6-24.8 24.4-1.8 7.6-3.5 17.1-5.6 28.8h-22.5l1-5.1c3.9-23 8.9-46.4 11.7-69.4h20.9v13c1.1-1.3 2.3-2.8 2.3-2.8 6.8-8.8 14.5-14.9 26.3-10.6l-6.4 16.6c7.4-11.2 20.1-17.9 36.4-17.9 22.9 0 35.1 14.5 35.1 33.1zm-23.9-0.5c0-7.7-3.1-14.9-12.2-14.9-11.3 0-18.3 13.4-18.3 25.1 0 10 4.8 16.6 12.7 16.5 10.9 0 17.8-9.9 17.8-26.7zm-361 43.6h-22.3l13.3-70-30.6 70h-20.4l-3.7-69.6-13.3 69.6h-20.3l17.3-91h34.9l2.9 50.7 22.1-50.7h37.7z"/>
	<path fill-rule="evenodd" class="s3" d="m628.1 288.9c0.1-3.2 2.6-5.8 5.8-5.8 3.2 0 5.8 2.6 5.8 5.8 0 3.2-2.5 5.8-5.7 5.8-3.2 0-5.8-2.6-5.8-5.8zm5.7 4.4c2.5 0 4.5-2 4.5-4.4 0-2.4-2-4.4-4.5-4.4-2.4 0-4.4 2-4.4 4.4 0 2.4 2 4.4 4.4 4.4zm-0.7-1.9h-1.2v-5h2.1c0.5 0 0.9 0 1.3 0.2 0.4 0.3 0.7 0.8 0.7 1.3 0 0.6-0.4 1.1-0.9 1.3l0.9 2.2h-1.3l-0.8-2h-0.8zm0-2.8h0.6c0.3 0 0.5 0 0.7-0.1 0.2-0.2 0.3-0.4 0.3-0.6 0-0.2-0.1-0.4-0.2-0.5-0.3-0.2-0.6-0.1-0.8-0.1h-0.6zm-240.1 4.3c-7.7 2-15.1 3-23 3-25 0-38-11.4-38-33.2 0-25.4 16.6-44.2 39.1-44.2 18.4 0 30.2 10.5 30.2 27 0 5.4-0.8 10.7-2.8 18.3h-44.5c-1.6 10.6 6.2 15.3 19.4 15.3 8 0 15.1-1.4 23.1-4.6zm-12-44.2c0-1.6 2.5-13-10.4-13.3-7.1 0-12.2 4.8-14.3 13.3zm61.3-30.2c5.1 0 14.1 0.7 20 1.5l-3.2 17.2c-5.8-0.7-12-1.1-16.4-1.1-7.4 0-11.2 2.1-11.2 6.1 0 3.5 1.2 4.3 10.7 8.1 11.4 4.5 16 10.5 16 20.7 0 17-11.1 24.9-35.1 24.9-8-0.2-17.2-0.7-23.6-2.2l3.2-17.2c7.3 2.1 13.5 2.9 20.3 2.9 9 0.1 13-2.1 13-6.7 0-3.4-1.4-4.5-10.6-8.2-12-4.9-17.3-11.4-17.3-20.8-0.1-13.7 8.7-25.2 34.2-25.2zm-122.5 76.2h-18.6l0.4-7.9c-5.7 6.2-13.3 9.1-23.5 9.1-12.2 0-20.6-8.4-20.6-20.3 0-18.2 14.5-28.7 39.5-28.7 2.5 0 5.8 0.2 9.1 0.5 0.7-2.4 0.9-3.4 0.9-4.8 0-4.9-3.9-6.8-14.4-6.8-10.3 0.1-17.3 1.6-23.8 3.3l3.2-16.7c11.2-2.8 18.5-3.9 26.8-3.9 19.3 0 29.5 7.6 29.5 21.8 0.2 3.8-1.1 11.4-1.8 14.7-0.8 4.9-6.1 33-6.7 39.7zm-16.4-33.2c-2.3-0.3-3.4-0.4-5-0.4-12.7 0-19.2 3.8-19.2 11.3 0 4.7 3.2 7.6 8.1 7.6 9.2 0 15.8-7.6 16.1-18.5zm194.1 32c-6.1 1.6-10.8 2.4-16 2.4-11.4 0-17.7-5.9-17.7-16.3-0.3-2.8 2.5-16 3.1-19.7 0.6-3.7 10.5-57.5 10.5-57.5h22.2l-3.3 17.8h11.4l-3.1 18.2h-11.5c0 0-6.3 31.5-6.3 33.9 0 3.8 2.4 5.5 7.7 5.5 2.5 0 4.5-0.2 6-0.7zm90.9 2.4c-25.1 0-35.2-15.2-35.2-33.8 0-26 17.1-43.6 43.6-43.6 23 0 35.2 14.5 35.2 33.1 0 30.8-18.3 44.3-43.6 44.3zm7.4-59.7c-11.3 0-18.3 13.4-18.3 25.2 0 9.9 4.8 16.5 12.7 16.4 10.9 0 17.8-9.9 17.8-26.7 0-7.6-3.1-14.9-12.2-14.9zm-57.6-16c0.2 3.5-0.9 7.3-1.6 11.3 6.9-8.8 14.5-15 26.4-10.7l-8.2 21.1c-16.9-4.5-19.6 8.2-27.7 52.8h-22.5l1-5c3.9-23.1 8.9-46.5 11.7-69.5zm-313.5 74.5l13.3-70-30.6 70h-20.3l-3.7-69.6-13.4 69.6h-20.2l17.2-91h34.9l1.9 56.3 24.6-56.3h36.3c0 0-17.6 91-17.6 91z"/>
</svg>