<svg version="1.2" xmlns="http://www.w3.org/2000/svg" viewBox="0 0 780 500" width="780" height="500">
	<title>payment_1-svg</title>
	<style>
		.s0 { fill: #16366f } 
		.s1 { fill: #d9222a } 
		.s2 { fill: #ee9f2d } 
		.s3 { fill: #000000 } 
		.s4 { fill: #ffffff } 
	</style>
	<path class="s0" d="m0 0h780v500h-780z"/>
	<path class="s1" d="m449 250c0 99.1-80.4 179.5-179.5 179.5-99.1 0-179.5-80.4-179.5-179.5 0-99.1 80.4-179.5 179.5-179.5 99.1 0 179.5 80.4 179.5 179.5z"/>
	<path class="s2" d="m510.5 70.5c-46.4 0-88.7 17.6-120.5 46.5-6.5 5.9-12.6 12.2-18.1 19h36.2q7.5 9 13.7 19h-63.6q-5.8 9.2-10.4 19h84.4q4.3 9.3 7.6 19h-99.6q-3.1 9.3-5.2 19h110c2.7 12.5 4 25.2 4 38 0 19.9-3.2 39.1-9.2 57h-99.6q3.3 9.7 7.6 19h84.4q-4.7 9.8-10.4 19h-63.6c4.1 6.7 8.7 13 13.7 19h36.2c-5.5 6.8-11.6 13.2-18.1 19.1 31.9 28.8 74.1 46.4 120.5 46.4 99.1 0 179.5-80.4 179.5-179.5 0-99.1-80.4-179.5-179.5-179.5z"/>
	<path fill-rule="evenodd" class="s3" d="m666.1 350.1c0-3.2 2.6-5.8 5.8-5.8 3.2 0 5.8 2.6 5.8 5.8 0 3.2-2.6 5.8-5.8 5.8-3.2 0-5.8-2.6-5.8-5.8zm5.8 4.4c2.4 0 4.4-2 4.4-4.4 0-2.5-2-4.4-4.4-4.4-2.5 0-4.4 1.9-4.4 4.3v0.1c0 2.4 1.9 4.4 4.4 4.4q0 0 0 0zm-0.8-1.9h-1.2v-5.1h2.2c0.4 0 0.9 0 1.3 0.3 0.4 0.2 0.6 0.7 0.6 1.2 0 0.6-0.3 1.2-0.9 1.4l1 2.2h-1.4l-0.7-2h-0.9c0 0 0 2 0 2zm0-2.9h0.7c0.2 0 0.5 0 0.7-0.1 0.2-0.1 0.3-0.3 0.3-0.6 0-0.2-0.1-0.4-0.3-0.5-0.2-0.1-0.6-0.1-0.8-0.1h-0.6zm-429.3-47.1h-16.2l0.4-7.6c-4.9 6-11.5 8.9-20.4 8.9-10.6 0-17.8-8.2-17.8-20.2 0-18 12.6-28.5 34.2-28.5 2.2 0 5 0.2 7.9 0.5 0.6-2.4 0.8-3.5 0.8-4.8 0-4.9-3.4-6.7-12.5-6.7-9.6-0.1-17.4 2.3-20.6 3.3 0.2-1.2 2.7-16.6 2.7-16.6 9.7-2.9 16.1-4 23.3-4 16.7 0 25.6 7.6 25.6 21.8 0 3.8-0.6 8.5-1.6 14.6-1.7 10.8-5.3 33.7-5.8 39.3zm-14.2-32.9c-2.1-0.3-3-0.3-4.4-0.3-11 0-16.6 3.7-16.6 11.2 0 4.6 2.7 7.6 7 7.6 7.9 0 13.7-7.6 14-18.5zm-48 32.9h-19.5l11.2-69.9-24.9 69.9h-13.3l-1.7-69.5-11.7 69.5h-18.2l15.2-91h28l1.7 51 17.1-51h31.2zm369.1 0h-16.1l0.4-7.7c-5 6.1-11.5 9-20.5 9-10.5 0-17.8-8.3-17.8-20.3 0-18 12.6-28.5 34.3-28.5 2.2 0 5 0.2 7.9 0.6 0.6-2.5 0.7-3.5 0.7-4.8 0-4.9-3.3-6.8-12.4-6.8-9.6-0.1-17.4 2.3-20.7 3.4 0.2-1.3 2.7-16.7 2.7-16.7 9.7-2.8 16.1-3.9 23.3-3.9 16.8 0 25.6 7.5 25.6 21.7 0.1 3.8-0.6 8.5-1.5 14.7-1.7 10.7-5.4 33.7-5.9 39.3zm-14.1-33c-2.1-0.2-3-0.3-4.4-0.3-11 0-16.6 3.8-16.6 11.3 0 4.6 2.7 7.5 7 7.5 7.9 0 13.6-7.5 14-18.5zm-206.3 31.9c-5.3 1.7-9.4 2.4-14 2.4-9.9 0-15.3-5.8-15.3-16.3-0.2-3.3 1.4-11.9 2.6-19.7 1.1-7 8.5-50.6 8.5-50.6h19.3l-2.2 11.2h11.7l-2.7 17.8h-11.7c-2.3 14.1-5.5 31.7-5.5 34 0 3.8 2 5.5 6.7 5.5 2.2 0 3.9-0.3 5.2-0.7zm59.4-0.6c-6.6 2-13.1 3-19.9 3-21.6 0-32.9-11.4-32.9-33.1 0-25.3 14.3-43.9 33.9-43.9 15.9 0 26.1 10.4 26.1 26.8 0 5.4-0.7 10.7-2.4 18.2h-38.5c-1.3 10.7 5.5 15.2 16.8 15.2 6.9 0 13.2-1.4 20.1-4.6zm-10.8-43.9c0.1-1.6 2-13.3-9.1-13.3-6.1 0-10.5 4.7-12.3 13.3zm-94.2-30.1c4.5 0 12.1 0.6 17.2 1.4l-2.8 17.2c-5-0.7-10.2-1.1-14-1.1-6.3 0-9.5 2-9.5 6 0 3.5 0.9 4.3 9.1 8.1 9.7 4.5 13.7 10.4 13.7 20.6 0 16.9-9.5 24.8-30.1 24.8-11.9-0.4-15.8-1.3-20.2-2.2 0.1-0.8 2.6-17.1 2.6-17.1 6.3 2 11.7 2.9 17.5 2.9 7.7 0 11.2-2.1 11.2-6.7 0-3.4-1.2-4.5-9.1-8.2-10.3-4.8-14.9-11.3-14.9-20.7 0-13.6 7.5-25 29.3-25zm175.1 36c0 13.9 6.8 22.2 18.2 22.2 4.8 0 10.1-1.5 16.5-4.7l-3.4 20.8c-7.2 1.9-11.8 2.7-17.2 2.7-21 0-34.1-15.1-34.1-39.4q0-7.6 1.4-15.1c-6.9-0.2-10.3 1.2-11.4 5.3l-7.3 4c-1.1 9.2-2.9 22.7-6.2 43.9h-19.5l0.9-5c3.4-22.9 7.7-46.2 10.2-69.1h17.9c0.1 2.5-0.2 5-0.6 7.5l5-1.2c5.7-7.5 10.4-15.1 21.7-11.4 7.7-10.6 18.8-17.1 31.8-17.1 8.5 0 18.6 6.6 21.4 7.7l-3.2 19.7c-6.9-3.5-12-4.9-17.4-4.9-14.5 0-24.7 14.1-24.7 34.1z"/>
	<path class="s4" d="m185.2 297.2h-19.5l11.2-69.9-24.9 69.9h-13.3l-1.7-69.5-11.7 69.5h-18.2l15.2-91h28l0.8 56.4 18.9-56.4h30.3z"/>
	<path fill-rule="evenodd" class="s3" d="m666.7 211.6l-14.8 91h-18.4l0.9-6.8c-5.4 5.7-10.8 8.1-18 8.1-14.2 0-23.5-12.2-23.5-30.7 0-8.5 1.7-16.8 4.7-24-6.7-0.4-10.1 4.9-16.7 10.9-1.5 11.3-3.5 25.5-6.2 42.6h-19.4l0.9-5c3.3-23 7.7-46.2 10.1-69.1h17.9c0.1 1.3-0.2 5-0.8 11.1 0.1 0 8.5 2.9 16.5 4.5 5.9-10.9 14.9-18.4 24.7-18.4 7.5 0 13.3 5.1 18.6 12.1l4.3-26.3zm-83.4 28.1q0 0 0 0 0 0 0 0zm55.3 20.9c0-9.4-3.6-14.5-10.3-14.5-8.9 0-15.2 10.3-15.2 24.8 0 9.7 3.4 14.6 10 14.6 9.1 0 15.5-10.2 15.5-24.9z"/>
	<path fill-rule="evenodd" class="s4" d="m247.4 297.2h-16.2l0.4-7.6c-4.9 6-11.5 8.9-20.4 8.9-10.6 0-17.8-8.2-17.8-20.2 0-18 12.6-28.5 34.2-28.5 2.2 0 5 0.2 7.9 0.5 0.6-2.4 0.8-3.5 0.8-4.8 0-4.9-3.4-6.7-12.5-6.7-9.6-0.1-17.4 2.3-20.6 3.3 0.2-1.2 2.7-16.6 2.7-16.6 9.7-2.9 16.1-4 23.3-4 16.7 0 25.6 7.6 25.6 21.8 0 3.8-0.6 8.5-1.6 14.6-1.7 10.8-5.3 33.8-5.8 39.3zm-14.2-32.9c-2.1-0.3-3-0.3-4.4-0.3-11 0-16.6 3.7-16.6 11.2 0 4.6 2.7 7.6 7 7.6 7.9 0 13.7-7.6 14-18.5zm275.5-55.6l-3.1 19.7c-7-3.5-12-4.9-17.4-4.9-14.6 0-24.8 14.1-24.8 34.1 0 13.8 6.9 22.2 18.2 22.2 4.8 0 10.1-1.5 16.5-4.7l-3.4 20.8c-7.2 1.9-11.8 2.6-17.2 2.6-21 0-34.1-15.1-34.1-39.3 0-32.5 18.1-55.3 43.9-55.3 8.5 0 18.6 3.6 21.4 4.8zm45.7 88.5h-16.2l0.4-7.6c-4.9 6-11.5 8.9-20.4 8.9-10.6 0-17.8-8.2-17.8-20.2 0-18 12.6-28.5 34.2-28.5 2.2 0 5 0.2 7.9 0.5 0.6-2.4 0.8-3.5 0.8-4.8 0-4.9-3.4-6.7-12.5-6.7-9.5-0.1-17.4 2.3-20.6 3.3 0.2-1.2 2.7-16.6 2.7-16.6 9.7-2.9 16.1-4 23.3-4 16.7 0 25.6 7.6 25.6 21.8 0 3.8-0.6 8.5-1.6 14.6-1.7 10.8-5.3 33.8-5.8 39.3zm-14.2-32.9c-2.1-0.3-3-0.3-4.4-0.3-11 0-16.6 3.7-16.6 11.2 0 4.6 2.7 7.6 7 7.6 7.9 0 13.7-7.6 14-18.5zm-206.2 31.8c-5.4 1.7-9.5 2.4-14 2.4-10 0-15.4-5.7-15.4-16.2-0.2-3.3 1.4-11.9 2.7-19.8 1.1-6.9 8.4-50.5 8.4-50.5h19.4l-2.3 11.2h10l-2.7 17.8h-10c-2.2 14.1-5.4 31.6-5.5 33.9 0 3.9 2.1 5.5 6.7 5.5 2.2 0 3.9-0.2 5.3-0.7zm59.4-0.6c-6.7 2.1-13.1 3.1-19.9 3-21.7 0-33-11.3-33-33 0-25.3 14.4-43.9 33.9-43.9 16 0 26.2 10.4 26.2 26.8 0 5.4-0.7 10.7-2.4 18.2h-38.6c-1.3 10.7 5.6 15.2 16.8 15.2 7 0 13.2-1.4 20.2-4.7zm-10.9-43.9c0.1-1.5 2-13.2-9-13.2-6.2 0-10.6 4.7-12.4 13.2zm-94.1-30.1c4.4 0 12.1 0.7 17.1 1.5l-2.8 17.2c-4.9-0.8-10.2-1.2-14-1.2-6.3 0-9.5 2.1-9.5 6.1 0 3.5 0.9 4.3 9.1 8 9.8 4.5 13.7 10.5 13.7 20.7 0 16.9-9.5 24.7-30 24.7-11.9-0.3-15.9-1.2-20.3-2.2 0.1-0.8 2.7-17.1 2.7-17.1 6.2 2 11.6 2.9 17.4 2.9 7.7 0 11.2-2 11.2-6.7 0-3.3-1.2-4.4-9.1-8.1-10.3-4.9-14.8-11.3-14.8-20.7-0.1-13.7 7.5-25.1 29.3-25.1zm369.1 75.7h-18.4l0.9-6.9c-5.3 5.8-10.8 8.2-18 8.2-14.1 0-23.5-12.2-23.5-30.7 0-24.6 14.5-45.4 31.7-45.4 7.6 0 13.3 3.1 18.6 10.1l4.3-26.3h19.3zm-28.8-17.1c9.1 0 15.5-10.3 15.5-25 0-9.4-3.7-14.5-10.4-14.5-8.8 0-15.1 10.3-15.1 24.9 0 9.7 3.4 14.6 10 14.6zm-38.9-57c0.1 3.8-0.7 7.5-1.2 11.3 6-8.8 10.5-13.4 18.7-11.7-2.4 4.1-5.7 12.2-7.4 21.5-10.9-1.1-12.6 7.7-19.6 53h-19.5l0.9-5c3.4-22.9 7.7-46.1 10.2-69.1zm-160.4 0c0.1 3.8-0.7 7.5-1.2 11.3 6-8.8 10.5-13.4 18.7-11.7-2.4 4.1-5.7 12.2-7.4 21.5-11-1.1-12.6 7.7-19.6 53h-19.5l0.9-5c3.4-22.9 7.7-46.1 10.2-69.1zm236.6 68.3c0-3.2 2.6-5.8 5.8-5.8 3.2 0 5.8 2.6 5.8 5.8 0 3.2-2.6 5.8-5.8 5.8-3.2 0-5.8-2.6-5.8-5.8zm5.8 4.4c2.5 0 4.4-2 4.4-4.4 0-2.4-1.9-4.4-4.4-4.4-2.4 0-4.4 2-4.4 4.4 0 2.4 2 4.4 4.4 4.4zm-0.8-1.9h-1.1v-5.1h2.1c0.5 0 0.9 0 1.3 0.3 0.4 0.3 0.7 0.8 0.7 1.3 0 0.5-0.4 1.1-0.9 1.3l0.9 2.2h-1.3l-0.8-2h-0.9c0 0 0 2 0 2zm0-2.9h0.7c0.2 0 0.5 0.1 0.7-0.1 0.2-0.1 0.3-0.3 0.3-0.5 0-0.3-0.1-0.4-0.3-0.6-0.2-0.1-0.5-0.1-0.7-0.1h-0.7c0 0 0 1.3 0 1.3z"/>
</svg>